<?xml version="1.0" standalone="yes"?>
<svg xmlns="http://www.w3.org/2000/svg" width="500" height="500">
<path style="fill:#010101; stroke:none;" d="M0 0L0 500L500 500L500 0L0 0z"/>
<path style="fill:#757371; stroke:none;" d="M248.667 78.3333L249.333 78.6667L248.667 78.3333z"/>
<path style="fill:#ea6961; stroke:none;" d="M250.667 78.3333L251.333 78.6667L250.667 78.3333z"/>
<path style="fill:#757371; stroke:none;" d="M252.667 78.3333L253.333 78.6667L252.667 78.3333z"/>
<path style="fill:#ea6961; stroke:none;" d="M246 79L247 80L246 79z"/>
<path style="fill:#f0a064; stroke:none;" d="M248 115C240.113 107.113 229.9 92.0594 219 89C221.023 102.107 239.533 111.128 246.397 122C250.264 128.126 248 139.958 248 147L228 128.028L214 125.972L201 119L206 127C198.114 127 189.568 128.262 184.889 120.285C181.863 115.126 185.527 108.855 177.985 106.188C168.619 102.877 160.839 116.262 169.144 122.258C172.414 124.618 176.163 123.009 179.576 124.452C183.544 126.13 185.636 130.373 190 131.566C200.654 134.481 213.622 128.777 224 132.603C229.822 134.75 234.717 141.715 239 146C241.934 148.935 245.919 151.993 247.397 156C249.585 161.935 248 170.718 248 177C241.976 170.976 234.207 165.046 229.407 158C226.316 153.461 229.105 147.418 223.867 143.859C215.838 138.405 205.487 148.853 210.858 156.891C214.284 162.018 219.393 159.523 224 161.889C230.913 165.44 244.696 178.674 247.397 186C249.96 192.952 248 203.634 248 211L248 268L253 268L253 203C253 192.686 251.563 181.189 253.148 171C254.12 164.751 263.909 154.845 270 153.318C275.206 152.013 286.399 151.699 291 154.603C296.142 157.849 298.916 163.292 305 165C305.196 159.598 301.615 156.648 298 153L343 153C348.122 153 356.056 154.857 358 149L326 148C328.917 145.083 332.054 140.827 336 139.313C341.053 137.375 346.094 139.827 349.308 133.895C354.091 125.066 343.223 115.936 335.225 121.894C330.748 125.228 332.516 129.503 331.231 134C329.855 138.813 322.638 145.686 318 147.397C302.582 153.081 282.418 142.919 267 148.603C261.522 150.623 257.036 156.964 253 161C253 144.959 252.091 136.884 264 125C267.948 121.06 271.836 116.31 278 117.153C286.349 118.295 289.467 128.683 298 130L289 117C295.451 116.977 298.238 113.385 304 112.026C307.569 111.185 310.709 112.285 313.772 109.566C318.814 105.09 317.739 95.6207 310.96 93.5146C296.806 89.1171 301.588 105.664 294.927 110.397C288.596 114.895 278.174 110.471 271 112.434C263.954 114.361 257.993 123.007 253 128C253 119.388 251.147 108.376 253.318 100.039C254.741 94.5766 260.788 92.5166 259.64 86.0038C257.972 76.5341 243.757 77.0505 241.613 86.0038C240.174 92.0105 245.531 94.2896 247.397 99.0895C249.159 103.621 248 110.192 248 115z"/>
<path style="fill:#757371; stroke:none;" d="M255 79L256 80L255 79M244 80L245 81L244 80M257 80L258 81L257 80M243 81L244 82L243 81M242 82L243 83L242 82M259 83L260 84L259 83M241 84L242 85L241 84z"/>
<path style="fill:#ea6961; stroke:none;" d="M259 84L260 85L259 84M241 85L242 86L241 85z"/>
<path style="fill:#757371; stroke:none;" d="M260 87L261 88L260 87M220 88L221 89L220 88z"/>
<path style="fill:#ea6961; stroke:none;" d="M222 89L223 90L222 89M218.333 90.6667L218.667 91.3333L218.333 90.6667M223 90L224 91L223 90M241 90L242 91L241 90M224 91L225 92L224 91z"/>
<path style="fill:#757371; stroke:none;" d="M241 91L242 92L241 91M259 91L260 92L259 91M218 92L219 93L218 92z"/>
<path style="fill:#ea6961; stroke:none;" d="M225 92L226 93L225 92z"/>
<path style="fill:#757371; stroke:none;" d="M305 92L305 93L310 93L305 92M219 93L220 94L219 93z"/>
<path style="fill:#ea6961; stroke:none;" d="M226 93L227 94L226 93z"/>
<path style="fill:#757371; stroke:none;" d="M242 93L243 94L242 93M258 93L259 94L258 93M303 93L304 94L303 93M312 93L313 94L312 93z"/>
<path style="fill:#ea6961; stroke:none;" d="M220 94L221 95L220 94z"/>
<path style="fill:#757371; stroke:none;" d="M227 94L228 95L227 94z"/>
<path style="fill:#ea6961; stroke:none;" d="M243 94L244 95L243 94z"/>
<path style="fill:#757371; stroke:none;" d="M257 94L258 95L257 94M301 94L302 95L301 94z"/>
<path style="fill:#ea6961; stroke:none;" d="M313 94L314 95L313 94M221 95L222 96L221 95z"/>
<path style="fill:#757371; stroke:none;" d="M228 95L229 96L228 95z"/>
<path style="fill:#ea6961; stroke:none;" d="M244 95L245 96L244 95z"/>
<path style="fill:#757371; stroke:none;" d="M256 95L257 96L256 95M300 95L301 96L300 95z"/>
<path style="fill:#ea6961; stroke:none;" d="M222 96L223 97L222 96z"/>
<path style="fill:#757371; stroke:none;" d="M229 96L230 97L229 96M245 96L246 97L245 96z"/>
<path style="fill:#ea6961; stroke:none;" d="M246 96L247 97L246 96M254 96L255 97L254 96z"/>
<path style="fill:#757371; stroke:none;" d="M299 96L300 97L299 96z"/>
<path style="fill:#ea6961; stroke:none;" d="M315 96L316 97L315 96M223 97L224 98L223 97z"/>
<path style="fill:#757371; stroke:none;" d="M230 97L231 98L230 97M247 97L246 114C249.529 110.917 248.718 101.095 247 97M316 97L317 98L316 97z"/>
<path style="fill:#ea6961; stroke:none;" d="M224 98L225 99L224 98z"/>
<path style="fill:#757371; stroke:none;" d="M231 98L232 99L231 98M298 98L299 99L298 98z"/>
<path style="fill:#ea6961; stroke:none;" d="M225 99L226 100L225 99z"/>
<path style="fill:#757371; stroke:none;" d="M232 99L233 100L232 99z"/>
<path style="fill:#ea6961; stroke:none;" d="M298 99L299 100L298 99M226 100L227 101L226 100z"/>
<path style="fill:#757371; stroke:none;" d="M233 100L234 101L233 100M317 100L317 105L318 105L317 100z"/>
<path style="fill:#ea6961; stroke:none;" d="M227 101L228 102L227 101z"/>
<path style="fill:#757371; stroke:none;" d="M234 101L235 102L234 101z"/>
<path style="fill:#ea6961; stroke:none;" d="M228 102L229 103L228 102z"/>
<path style="fill:#757371; stroke:none;" d="M235 102L236 103L235 102z"/>
<path style="fill:#ea6961; stroke:none;" d="M229 103L230 104L229 103z"/>
<path style="fill:#757371; stroke:none;" d="M236 103L237 104L236 103z"/>
<path style="fill:#ea6961; stroke:none;" d="M230 104L231 105L230 104z"/>
<path style="fill:#757371; stroke:none;" d="M237 104L238 105L237 104M172 105L173 106L172 105z"/>
<path style="fill:#ea6961; stroke:none;" d="M173 105L174 106L173 105M176 105L177 106L176 105z"/>
<path style="fill:#757371; stroke:none;" d="M177 105L178 106L177 105z"/>
<path style="fill:#ea6961; stroke:none;" d="M231 105L232 106L231 105z"/>
<path style="fill:#757371; stroke:none;" d="M238 105L239 106L238 105z"/>
<path style="fill:#ea6961; stroke:none;" d="M298 105L299 106L298 105M170 106L171 107L170 106M179 106L180 107L179 106M232 106L233 107L232 106z"/>
<path style="fill:#757371; stroke:none;" d="M239 106L240 107L239 106M298.333 106.667L298.667 107.333L298.333 106.667z"/>
<path style="fill:#ea6961; stroke:none;" d="M316 106L317 107L316 106z"/>
<path style="fill:#757371; stroke:none;" d="M168 107L169 108L168 107M181 107L182 108L181 107z"/>
<path style="fill:#ea6961; stroke:none;" d="M233 107L234 108L233 107z"/>
<path style="fill:#757371; stroke:none;" d="M240 107L241 108L240 107M167 108L168 109L167 108M182 108L183 109L182 108M241 108L242 109L241 108M297 108L298 109L297 108M315 108L316 109L315 108M242 109L243 110L242 109M296 109L297 110L296 109M314 109L315 110L314 109z"/>
<path style="fill:#ea6961; stroke:none;" d="M166 110L167 111L166 110M183 110L184 111L183 110z"/>
<path style="fill:#757371; stroke:none;" d="M243 110L244 111L243 110M295 110L296 111L295 110M313 110L314 111L313 110M244 111L245 112L244 111M294 111L295 112L294 111M303 111L304 112L303 111z"/>
<path style="fill:#ea6961; stroke:none;" d="M304 111L305 112L304 111z"/>
<path style="fill:#757371; stroke:none;" d="M311 111L312 112L311 111M165 112L166 113L165 112M184 112L184 117L185 117L184 112M245 112L246 113L245 112z"/>
<path style="fill:#ea6961; stroke:none;" d="M269 112L270 113L269 112M165 113L166 114L165 113M247 114L248 115L247 114M165 116L166 117L165 116z"/>
<path style="fill:#757371; stroke:none;" d="M165.333 117.667L165.667 118.333L165.333 117.667M202 117L202 118L205 118L202 117M271 117L271 118L282 118L271 117z"/>
<path style="fill:#ea6961; stroke:none;" d="M289 117L290 118L289 117z"/>
<path style="fill:#757371; stroke:none;" d="M290 119L296 118L290 119M201 118L202 119L201 118M205 118L206 119L205 118M270 118L271 119L270 118M183 119L184 120L183 119z"/>
<path style="fill:#ea6961; stroke:none;" d="M206 119L207 120L206 119z"/>
<path style="fill:#757371; stroke:none;" d="M269 119L270 120L269 119M291 119L292 120L291 119M339 119L339 120L343 120L339 119M166 120L167 121L166 120M207 120L208 121L207 120M268 120L269 121L268 120M292 120L293 121L292 120M336 120L337 121L336 120M345 120L346 121L345 120M167 121L168 122L167 121M201 121L202 122L201 121M208 121L209 122L208 121M267 121L268 122L267 121M293 121L294 122L293 121z"/>
<path style="fill:#ea6961; stroke:none;" d="M335 121L336 122L335 121z"/>
<path style="fill:#757371; stroke:none;" d="M168 122L169 123L168 122z"/>
<path style="fill:#ea6961; stroke:none;" d="M202 122L203 123L202 122z"/>
<path style="fill:#757371; stroke:none;" d="M209 122L210 123L209 122M247 122L246 146C250.036 142.473 249.003 126.773 247 122M266 122L267 123L266 122M294 122L295 123L294 122z"/>
<path style="fill:#ea6961; stroke:none;" d="M170 123L171 124L170 123z"/>
<path style="fill:#757371; stroke:none;" d="M179 123L180 124L179 123z"/>
<path style="fill:#ea6961; stroke:none;" d="M203 123L204 124L203 123z"/>
<path style="fill:#757371; stroke:none;" d="M210 123L211 124L210 123M265 123L266 124L265 123M295 123L296 124L295 123M172 124L172 125L177 125L172 124M180 124L181 125L180 124z"/>
<path style="fill:#ea6961; stroke:none;" d="M204 124L205 125L204 124z"/>
<path style="fill:#757371; stroke:none;" d="M211 124L212 125L211 124M264 124L265 125L264 124M296 124L297 125L296 124M332 124L333 125L332 124M349 124L350 125L349 124M181 125L182 126L181 125z"/>
<path style="fill:#ea6961; stroke:none;" d="M205 125L206 126L205 125z"/>
<path style="fill:#757371; stroke:none;" d="M212 125L213 126L212 125M263 125L264 126L263 125M297 125L298 126L297 125M182 126L183 127L182 126M190 126L190 127L206 127L190 126z"/>
<path style="fill:#ea6961; stroke:none;" d="M213 126L214 127L213 126z"/>
<path style="fill:#757371; stroke:none;" d="M214 126L214 127L226 127L214 126M262 126L263 127L262 126M331 126L332 127L331 126M350 126L351 127L350 126M183 127L184 128L183 127M228 127L229 128L228 127M261 127L262 128L261 127M298.333 127.667L298.667 128.333L298.333 127.667z"/>
<path style="fill:#ea6961; stroke:none;" d="M331 127L332 128L331 127M350 127L351 128L350 127z"/>
<path style="fill:#757371; stroke:none;" d="M184 128L185 129L184 128M229 128L230 129L229 128M260 128L261 129L260 128M185 129L186 130L185 129M230 129L231 130L230 129M259 129L260 130L259 129M186 130L187 131L186 130M231 130L232 131L231 130M258 130L259 131L258 130M295.667 130.333L296.333 130.667L295.667 130.333z"/>
<path style="fill:#ea6961; stroke:none;" d="M188 131L189 132L188 131z"/>
<path style="fill:#757371; stroke:none;" d="M232 131L233 132L232 131M257 131L258 132L257 131z"/>
<path style="fill:#ea6961; stroke:none;" d="M331 131L332 132L331 131M350 131L351 132L350 131z"/>
<path style="fill:#757371; stroke:none;" d="M233 132L234 133L233 132M256 132L257 133L256 132M331 132L332 133L331 132M350 132L351 133L350 132M234 133L235 134L234 133M255 133L256 134L255 133M235 134L236 135L235 134M254 134L255 135L254 134M349 134L350 135L349 134M236 135L237 136L236 135M253 135L254 136L253 135z"/>
<path style="fill:#ea6961; stroke:none;" d="M331 135L332 136L331 135M348 135L349 136L348 135z"/>
<path style="fill:#757371; stroke:none;" d="M237 136L238 137L237 136z"/>
<path style="fill:#ea6961; stroke:none;" d="M330 136L331 137L330 136z"/>
<path style="fill:#757371; stroke:none;" d="M238 137L239 138L238 137z"/>
<path style="fill:#ea6961; stroke:none;" d="M329 137L330 138L329 137M346 137L347 138L346 137z"/>
<path style="fill:#757371; stroke:none;" d="M239 138L240 139L239 138z"/>
<path style="fill:#ea6961; stroke:none;" d="M328 138L329 139L328 138z"/>
<path style="fill:#757371; stroke:none;" d="M335 138L336 139L335 138z"/>
<path style="fill:#ea6961; stroke:none;" d="M337 138L338 139L337 138M344 138L345 139L344 138z"/>
<path style="fill:#757371; stroke:none;" d="M240 139L241 140L240 139z"/>
<path style="fill:#ea6961; stroke:none;" d="M327 139L328 140L327 139z"/>
<path style="fill:#757371; stroke:none;" d="M334 139L335 140L334 139M340.667 139.333L341.333 139.667L340.667 139.333M241 140L242 141L241 140z"/>
<path style="fill:#ea6961; stroke:none;" d="M326 140L327 141L326 140z"/>
<path style="fill:#757371; stroke:none;" d="M333 140L334 141L333 140M242 141L243 142L242 141z"/>
<path style="fill:#ea6961; stroke:none;" d="M325 141L326 142L325 141z"/>
<path style="fill:#757371; stroke:none;" d="M332 141L333 142L332 141M141 142L142 143L141 142z"/>
<path style="fill:#f0a064; stroke:none;" d="M142 142L143 143L142 142z"/>
<path style="fill:#f8f8f8; stroke:none;" d="M229 203L195 202.397L175 188L187 203C177.786 203 165.957 205.001 157.039 202.682C151.679 201.288 149.38 195.286 143.001 196.434C133.676 198.113 131.982 211.793 141.005 215.257C149.15 218.384 150.838 210.047 157.104 208.318C168.997 205.036 185.644 208 198 208C194.67 211.33 191.266 215.837 187 217.972C182.582 220.183 177.407 218.101 174.457 223.189C169.72 231.357 178.463 241.025 186.956 236.542C193.046 233.328 190.722 226.799 194.318 222C204.596 208.284 214.425 209 230 209L230 271L235 270C235 248.732 237.193 226.084 234.424 205C233.69 199.406 235.513 191.937 232.397 187C228.86 181.398 219.579 170.967 213 169.318C208.16 168.105 202.611 170.278 198 167.972C195.037 166.491 190.096 158.913 186.427 160.346C183.072 161.656 188.054 167.536 189 169C175.528 169 163.917 170.887 155.488 158C152.404 153.286 155.455 147.424 149.941 143.859C139.743 137.265 129.804 154.044 140.109 159.821C143.543 161.746 147.611 160.271 151 162.488C155.567 165.475 158.442 171.289 164 172.682C187.305 178.525 213.872 162.799 227.972 191C229.72 194.495 229 199.205 229 203z"/>
<path style="fill:#f0a064; stroke:none;" d="M147 142L148 143L147 142z"/>
<path style="fill:#757371; stroke:none;" d="M148 142L149 143L148 142M215 142L216 143L215 142z"/>
<path style="fill:#ea6961; stroke:none;" d="M216 142L217 143L216 142M221 142L222 143L221 142z"/>
<path style="fill:#757371; stroke:none;" d="M222 142L223 143L222 142M243 142L244 143L243 142z"/>
<path style="fill:#ea6961; stroke:none;" d="M324 142L325 143L324 142z"/>
<path style="fill:#757371; stroke:none;" d="M331 142L332 143L331 142M139 143L140 144L139 143M150 143L151 144L150 143M213 143L214 144L213 143M244 143L245 144L244 143z"/>
<path style="fill:#ea6961; stroke:none;" d="M323 143L324 144L323 143z"/>
<path style="fill:#757371; stroke:none;" d="M330 143L331 144L330 143M138 144L139 145L138 144z"/>
<path style="fill:#f0a064; stroke:none;" d="M151 144L152 145L151 144z"/>
<path style="fill:#ea6961; stroke:none;" d="M212 144L213 145L212 144z"/>
<path style="fill:#757371; stroke:none;" d="M225 144L226 145L225 144M245 144L246 145L245 144z"/>
<path style="fill:#ea6961; stroke:none;" d="M322 144L323 145L322 144z"/>
<path style="fill:#757371; stroke:none;" d="M329 144L330 145L329 144M137 145L138 146L137 145z"/>
<path style="fill:#f0a064; stroke:none;" d="M152 145L153 146L152 145z"/>
<path style="fill:#ea6961; stroke:none;" d="M211 145L212 146L211 145z"/>
<path style="fill:#757371; stroke:none;" d="M226 145L227 146L226 145z"/>
<path style="fill:#ea6961; stroke:none;" d="M321 145L322 146L321 145z"/>
<path style="fill:#757371; stroke:none;" d="M328 145L329 146L328 145M136 146L137 147L136 146M153 146L154 147L153 146M210 146L211 147L210 146z"/>
<path style="fill:#ea6961; stroke:none;" d="M247 146L248 147L247 146M320 146L321 147L320 146z"/>
<path style="fill:#757371; stroke:none;" d="M327 146L328 147L327 146z"/>
<path style="fill:#f0a064; stroke:none;" d="M136 147L137 148L136 147z"/>
<path style="fill:#757371; stroke:none;" d="M227 147L228 148L227 147z"/>
<path style="fill:#ea6961; stroke:none;" d="M319 147L320 148L319 147z"/>
<path style="fill:#757371; stroke:none;" d="M326 147L327 148L326 147M209 148L210 149L209 148z"/>
<path style="fill:#ea6961; stroke:none;" d="M227 148L228 149L227 148z"/>
<path style="fill:#757371; stroke:none;" d="M265 148L266 149L265 148M356 148L357 149L356 148M135 149L136 150L135 149M154.333 149.667L154.667 150.333L154.333 149.667z"/>
<path style="fill:#ea6961; stroke:none;" d="M264 149L265 150L264 149z"/>
<path style="fill:#f0a064; stroke:none;" d="M135 150L136 151L135 150z"/>
<path style="fill:#ea6961; stroke:none;" d="M263 150L264 151L263 150z"/>
<path style="fill:#f0a064; stroke:none;" d="M154 151L155 152L154 151z"/>
<path style="fill:#ea6961; stroke:none;" d="M262 151L263 152L262 151z"/>
<path style="fill:#f0a064; stroke:none;" d="M135.333 152.667L135.667 153.333L135.333 152.667z"/>
<path style="fill:#757371; stroke:none;" d="M154.333 152.667L154.667 153.333L154.333 152.667z"/>
<path style="fill:#ea6961; stroke:none;" d="M261 152L262 153L261 152z"/>
<path style="fill:#757371; stroke:none;" d="M357 152L358 153L357 152z"/>
<path style="fill:#ea6961; stroke:none;" d="M260 153L261 154L260 153M267 153L268 154L267 153z"/>
<path style="fill:#757371; stroke:none;" d="M268 153L268 154L291 154L268 153M298 153L298 154L356 154L337 153L298 153M135 154L136 155L135 154z"/>
<path style="fill:#ea6961; stroke:none;" d="M209 154L210 155L209 154M227 154L228 155L227 154z"/>
<path style="fill:#757371; stroke:none;" d="M247 154L247 177L248 177L247 154z"/>
<path style="fill:#ea6961; stroke:none;" d="M259 154L260 155L259 154z"/>
<path style="fill:#757371; stroke:none;" d="M266 154L267 155L266 154M291 154L292 155L291 154z"/>
<path style="fill:#f0a064; stroke:none;" d="M153 155L154 156L153 155z"/>
<path style="fill:#757371; stroke:none;" d="M209 155L210 156L209 155M227 155L228 156L227 155z"/>
<path style="fill:#ea6961; stroke:none;" d="M258 155L259 156L258 155z"/>
<path style="fill:#757371; stroke:none;" d="M265 155L266 156L265 155M292 155L293 156L292 155z"/>
<path style="fill:#f0a064; stroke:none;" d="M136 156L137 157L136 156z"/>
<path style="fill:#757371; stroke:none;" d="M153 156L154 157L153 156z"/>
<path style="fill:#ea6961; stroke:none;" d="M257 156L258 157L257 156M264 156L265 157L264 156z"/>
<path style="fill:#757371; stroke:none;" d="M293 156L294 157L293 156M154 157L155 158L154 157M210 157L211 158L210 157z"/>
<path style="fill:#ea6961; stroke:none;" d="M256 157L257 158L256 157M263 157L264 158L263 157z"/>
<path style="fill:#757371; stroke:none;" d="M294 157L295 158L294 157M137 158L138 159L137 158M155 158L156 159L155 158M211 158L212 159L211 158z"/>
<path style="fill:#ea6961; stroke:none;" d="M255 158L256 159L255 158M262 158L263 159L262 158z"/>
<path style="fill:#757371; stroke:none;" d="M295 158L296 159L295 158M138 159L139 160L138 159M156 159L157 160L156 159z"/>
<path style="fill:#f0a064; stroke:none;" d="M185 159L186 160L185 159z"/>
<path style="fill:#757371; stroke:none;" d="M188 159L189 160L188 159M212 159L213 160L212 159z"/>
<path style="fill:#ea6961; stroke:none;" d="M254 159L255 160L254 159M261 159L262 160L261 159z"/>
<path style="fill:#757371; stroke:none;" d="M296 159L297 160L296 159M140 160L141 161L140 160M148.667 160.333L149.333 160.667L148.667 160.333M157 160L158 161L157 160M184 160L185 161L184 160M189 160L190 161L189 160M214 160L215 161L214 160M222.667 160.333L223.333 160.667L222.667 160.333z"/>
<path style="fill:#ea6961; stroke:none;" d="M253 160L254 161L253 160M260 160L261 161L260 160z"/>
<path style="fill:#757371; stroke:none;" d="M297 160L298 161L297 160M143 161L143 162L146 162L143 161M158 161L159 162L158 161M190 161L191 162L190 161M218 161L219 162L218 161M224 161L225 162L224 161M259 161L260 162L259 161M298 161L299 162L298 161M305 161L306 162L305 161M159 162L160 163L159 162z"/>
<path style="fill:#f0a064; stroke:none;" d="M184 162L185 163L184 162z"/>
<path style="fill:#757371; stroke:none;" d="M191 162L192 163L191 162M225 162L226 163L225 162M258 162L259 163L258 162M299 162L300 163L299 162M160 163L161 164L160 163M192 163L193 164L192 163M226 163L227 164L226 163M257 163L258 164L257 163M300 163L301 164L300 163z"/>
<path style="fill:#ea6961; stroke:none;" d="M305 163L306 164L305 163z"/>
<path style="fill:#757371; stroke:none;" d="M161 164L162 165L161 164M193 164L194 165L193 164M227 164L228 165L227 164z"/>
<path style="fill:#ea6961; stroke:none;" d="M256 164L257 165L256 164z"/>
<path style="fill:#757371; stroke:none;" d="M301 164L302 165L301 164M162 165L163 166L162 165M194 165L195 166L194 165M228 165L229 166L228 165z"/>
<path style="fill:#ea6961; stroke:none;" d="M255 165L256 166L255 165z"/>
<path style="fill:#757371; stroke:none;" d="M163 166L164 167L163 166M195 166L196 167L195 166M229 166L230 167L229 166z"/>
<path style="fill:#ea6961; stroke:none;" d="M254 166L255 167L254 166z"/>
<path style="fill:#757371; stroke:none;" d="M164 167L165 168L164 167M196 167L197 168L196 167M230 167L231 168L230 167z"/>
<path style="fill:#ea6961; stroke:none;" d="M253 167L254 168L253 167z"/>
<path style="fill:#f0a064; stroke:none;" d="M165 168L165 169L189 169L165 168M197 168L197 169L213 169L197 168z"/>
<path style="fill:#757371; stroke:none;" d="M213 168L214 169L213 168M231 168L232 169L231 168M327 168L328 169L327 168z"/>
<path style="fill:#ea6961; stroke:none;" d="M271 267L271 225C271 220.938 269.463 212.744 272.603 209.603C275.029 207.178 279.899 208 283 208C293.743 207.999 302.333 211.787 308.111 221.715C310.992 226.665 307.053 233.412 314.044 236.258C325.063 240.743 333.741 224.918 322.956 219.179C315.01 214.951 310.133 216.707 304 208C315.898 208 331.462 205.308 342.961 208.318C348.059 209.652 350.174 215.622 356 215.622C365.152 215.622 368.695 203.996 361.891 198.434C353.707 191.743 348.78 202.64 340.996 202.981C317.763 203.998 294.258 203 271 203C271 179.751 297.949 176.224 316.91 181.318C323.336 183.044 330.321 193.686 337.272 184.772C341.977 178.737 337.578 169.125 330 168.529C323.487 168.018 321.583 174.928 315.957 175.852C304.761 177.691 290.692 172.661 280 176.603C259.373 184.209 266 216.039 266 233C266 240.474 262.039 265.505 271 267z"/>
<path style="fill:#757371; stroke:none;" d="M331 168L332 169L331 168M232 169L233 170L232 169M324 169L325 170L324 169M233 170L234 171L233 170M335 170L336 171L335 170M234 171L235 172L234 171M336 171L337 172L336 171M235 172L236 173L235 172M337 172L338 173L337 172M163 173L163 174L212 174C199.348 168.691 176.788 173 163 173M236 173L237 174L236 173M320 173L321 174L320 173M212 174L213 175L212 174M237 174L238 175L237 174M213 175L214 176L213 175M238 175L239 176L238 175M280 175L280 176L320 176C309.488 171.589 291.434 175 280 175M214 176L215 177L214 176M239 176L240 177L239 176M278 176L279 177L278 176M339.333 176.667L339.667 177.333L339.333 176.667M215 177L216 178L215 177M240 177L241 178L240 177M277 177L278 178L277 177M216 178L217 179L216 178M241 178L242 179L241 178M276 178L277 179L276 178M217 179L218 180L217 179M242 179L243 180L242 179M275 179L276 180L275 179M339.333 179.667L339.667 180.333L339.333 179.667M218 180L219 181L218 180M243 180L244 181L243 180M274 180L275 181L274 180M219 181L220 182L219 181M244 181L245 182L244 181M273 181L274 182L273 181M220 182L221 183L220 182M245 182L246 183L245 182M272 182L273 183L272 182M221 183L222 184L221 183M246 183L247 184L246 183M271 183L272 184L271 183M338 183L339 184L338 183M222 184L223 185L222 184M247 184L247 268L236 270L236 206L235 206L235 253C235 257.279 236.653 266.082 233.397 269.4C229.525 273.345 218.28 273.659 213 275.344C195.93 280.793 179.101 287.971 164 297.692C158.691 301.11 151.032 304.695 149 311C163.644 308.807 178.663 301.509 193 297.421C225.765 288.08 260.877 280.93 295 285.285C307.416 286.87 319.899 290.481 331 296.32C338.042 300.024 344.39 306.927 352 309C343.053 278.811 299.428 267 272 267L272 209L271 209L271 267L248 268L248 210L247 184M270 184L271 185L270 184M321 184L322 185L321 184M223 185L224 186L223 185M269 185L270 186L269 185M322 185L323 186L322 185M224 186L225 187L224 186M268 186L269 187L268 186M323 186L324 187L323 186z"/>
<path style="fill:#f0a064; stroke:none;" d="M176 187L177 188L176 187z"/>
<path style="fill:#757371; stroke:none;" d="M178 187L179 188L178 187M225 187L226 188L225 187M267 187L268 188L267 187M334 187L335 188L334 187z"/>
<path style="fill:#f0a064; stroke:none;" d="M179 188L180 189L179 188z"/>
<path style="fill:#757371; stroke:none;" d="M226 188L227 189L226 188M327 188L327 189L332 189L327 188M174.333 189.667L174.667 190.333L174.333 189.667z"/>
<path style="fill:#f0a064; stroke:none;" d="M180 189L181 190L180 189z"/>
<path style="fill:#757371; stroke:none;" d="M227 189L228 190L227 189M234 189L234 206L235 206L234 189M266 189L267 190L266 189z"/>
<path style="fill:#f0a064; stroke:none;" d="M181 190L182 191L181 190z"/>
<path style="fill:#757371; stroke:none;" d="M228 190L229 191L228 190z"/>
<path style="fill:#f0a064; stroke:none;" d="M175 191L176 192L175 191M182 191L183 192L182 191z"/>
<path style="fill:#757371; stroke:none;" d="M271 191L271 203L272 203L271 191z"/>
<path style="fill:#f0a064; stroke:none;" d="M176 192L177 193L176 192M183 192L184 193L183 192M177 193L178 194L177 193M184 193L185 194L184 193M178 194L179 195L178 194M185 194L186 195L185 194M179 195L180 196L179 195M186 195L187 196L186 195z"/>
<path style="fill:#757371; stroke:none;" d="M141 196L142 197L141 196z"/>
<path style="fill:#f0a064; stroke:none;" d="M147 196L148 197L147 196z"/>
<path style="fill:#757371; stroke:none;" d="M148 196L149 197L148 196z"/>
<path style="fill:#f0a064; stroke:none;" d="M180 196L181 197L180 196M187 196L188 197L187 196z"/>
<path style="fill:#757371; stroke:none;" d="M359 196L360 197L359 196M139 197L140 198L139 197z"/>
<path style="fill:#f0a064; stroke:none;" d="M181 197L182 198L181 197M188 197L189 198L188 197z"/>
<path style="fill:#757371; stroke:none;" d="M361 197L362 198L361 197M151 198L152 199L151 198z"/>
<path style="fill:#f0a064; stroke:none;" d="M182 198L183 199L182 198M189 198L190 199L189 198z"/>
<path style="fill:#757371; stroke:none;" d="M349 198L350 199L349 198M362 198L363 199L362 198M152 199L153 200L152 199z"/>
<path style="fill:#f0a064; stroke:none;" d="M183 199L184 200L183 199M190 199L191 200L190 199z"/>
<path style="fill:#757371; stroke:none;" d="M348 199L349 200L348 199M363 199L364 200L363 199z"/>
<path style="fill:#f0a064; stroke:none;" d="M184 200L185 201L184 200M191 200L192 201L191 200z"/>
<path style="fill:#757371; stroke:none;" d="M135 201L136 202L135 201M153 201L154 202L153 201z"/>
<path style="fill:#f0a064; stroke:none;" d="M185 201L186 202L185 201M192 201L193 202L192 201M186 202L187 203L186 202M193 202L194 203L193 202z"/>
<path style="fill:#757371; stroke:none;" d="M134 203L134 210L135 210L134 203z"/>
<path style="fill:#f0a064; stroke:none;" d="M154 208L155 209L154 208z"/>
<path style="fill:#757371; stroke:none;" d="M155 208L155 209L197 210L185 208L155 208z"/>
<path style="fill:#f0a064; stroke:none;" d="M197 208L198 209L197 208z"/>
<path style="fill:#757371; stroke:none;" d="M272 208L272 209L295 209L272 208M304 208L304 209L346 209C335.012 204.389 315.957 208 304 208M365 208L366 209L365 208M206 209L206 210L230 210L206 209M296 209L297 210L296 209M153 210L154 211L153 210M195 210L196 211L195 210M297 210L298 211L297 210M135 211L136 212L135 211M194 211L195 212L194 211M298 211L299 212L298 211z"/>
<path style="fill:#f0a064; stroke:none;" d="M136 212L137 213L136 212z"/>
<path style="fill:#757371; stroke:none;" d="M193 212L194 213L193 212M299 212L300 213L299 212M348 212L349 213L348 212M363 212L364 213L363 212z"/>
<path style="fill:#f0a064; stroke:none;" d="M137 213L138 214L137 213z"/>
<path style="fill:#757371; stroke:none;" d="M151 213L152 214L151 213M300 213L301 214L300 213M349 213L350 214L349 213M362 213L363 214L362 213M138 214L139 215L138 214M301 214L302 215L301 214z"/>
<path style="fill:#f0a064; stroke:none;" d="M140 215L141 216L140 215z"/>
<path style="fill:#757371; stroke:none;" d="M148 215L149 216L148 215M302 215L303 216L302 215M353 215L354 216L353 215M358 215L359 216L358 215M142 216L142 217L146 217L142 216M189 216L190 217L189 216M303 216L304 217L303 216M188 217L189 218L188 217M304 217L305 218L304 217M179.667 218.333L180.333 218.667L179.667 218.333z"/>
<path style="fill:#f0a064; stroke:none;" d="M181 218L181 219L186 219L181 218z"/>
<path style="fill:#757371; stroke:none;" d="M186.667 218.333L187.333 218.667L186.667 218.333M305 218L306 219L305 218M314 218L315 219L314 218M177 219L178 220L177 219M306 219L307 220L306 219z"/>
<path style="fill:#f0a064; stroke:none;" d="M176 220L177 221L176 220z"/>
<path style="fill:#757371; stroke:none;" d="M307 220L308 221L307 220M308 221L309 222L308 221z"/>
<path style="fill:#f0a064; stroke:none;" d="M174 222L175 223L174 222z"/>
<path style="fill:#757371; stroke:none;" d="M309 222L310 223L309 222M173 223L174 224L173 223z"/>
<path style="fill:#f0a064; stroke:none;" d="M173 224L174 225L173 224z"/>
<path style="fill:#757371; stroke:none;" d="M192 224L192 230L193 230L192 224M172 226L172 230L173 230L172 226M308 226L308 230L309 230L308 226M327 231L328 232L327 231M173 232L174 233L173 232M191 232L192 233L191 232M326 233L327 234L326 233M325 234L326 235L325 234M175 235L176 236L175 235M189 235L190 236L189 235M324 235L325 236L324 235z"/>
<path style="fill:#f0a064; stroke:none;" d="M177 236L178 237L177 236M187 236L188 237L187 236z"/>
<path style="fill:#757371; stroke:none;" d="M178 237L179 238L178 237z"/>
<path style="fill:#f0a064; stroke:none;" d="M179 237L180 238L179 237M185 237L186 238L185 237z"/>
<path style="fill:#757371; stroke:none;" d="M186 237L187 238L186 237M316 237L316 238L321 238L316 237z"/>
<path style="fill:#f0a064; stroke:none;" d="M232.667 270.333L233.333 270.667L232.667 270.333z"/>
<path style="fill:#757371; stroke:none;" d="M120 325L120 326L130 326L120 325M147 325L147 326L157 326L147 325M206 325L206 333L207 333L207 326L216 326L206 325M251 325L251 326L260 326L260 342C263.986 332.501 261.177 325.008 251 325z"/>
<path style="fill:#f8f8f8; stroke:none;" d="M120 326L120 376L130 376L130 355L146.397 356.603L148 376L157 376L157 326L148 326L146.397 345.397L130 347L130 326L120 326z"/>
<path style="fill:#f0a064; stroke:none;" d="M147 326L147 346L148 346L147 326z"/>
<path style="fill:#f8f8f8; stroke:none;" d="M207 326L207 333L216 333L216 326L207 326z"/>
<path style="fill:#f0a064; stroke:none;" d="M251 326L251 376L252 376C252 361.951 256.409 338.89 251 326z"/>
<path style="fill:#f8f8f8; stroke:none;" d="M252 326L252 376L260 376C260 370.111 256.726 346.663 267 347.662C276.457 348.582 273 369.604 273 376L282 376C282 362.463 283.591 326.942 260 343L260 326L252 326z"/>
<path style="fill:#757371; stroke:none;" d="M227 329L227 330L236 330C236.001 336.388 235.527 340.755 243 341L243 340L237 340C236.999 331.303 236.016 329.007 227 329z"/>
<path style="fill:#f8f8f8; stroke:none;" d="M227 330L227 341L223 341L223 347L227 347C227 361.861 224.25 375.998 243 376L243 369C233.057 367.447 236 354.629 236 347L243 347L243 341L236 341L236 330L227 330z"/>
<path style="fill:#757371; stroke:none;" d="M174 339L175 340L174 339z"/>
<path style="fill:#f0a064; stroke:none;" d="M175 339L176 340L175 339z"/>
<path style="fill:#f8f8f8; stroke:none;" d="M168 343C172.664 352.649 182.967 342.945 188 354C181.935 355.444 173.215 353.275 168.653 358.394C156.325 372.227 178.142 377.796 188 374L196 376C196 367.517 198.34 354.959 195.258 347.004C191.031 336.093 175.817 338.185 168 343z"/>
<path style="fill:#f0a064; stroke:none;" d="M185 339L186 340L185 339z"/>
<path style="fill:#757371; stroke:none;" d="M186.667 339.333L187.333 339.667L186.667 339.333M206 339L206 377L216 377L216 376L207 376C207 365.351 210.111 348.798 206 339z"/>
<path style="fill:#f0a064; stroke:none;" d="M207 339L207 340L215 340L207 339z"/>
<path style="fill:#757371; stroke:none;" d="M215 339L216 340L215 339M265 339L266 340L265 339z"/>
<path style="fill:#f0a064; stroke:none;" d="M266 339L267 340L266 339z"/>
<path style="fill:#757371; stroke:none;" d="M273.667 339.333L274.333 339.667L273.667 339.333M301 339L302 340L301 339z"/>
<path style="fill:#f0a064; stroke:none;" d="M302 339L303 340L302 339z"/>
<path style="fill:#f8f8f8; stroke:none;" d="M321 372L316 366L315 366C308.21 370.482 301.743 369.04 299 361L322 361C321.999 355.147 322.244 349.084 318.2 344.329C311.862 336.878 298.484 337.567 293.367 346.043C281.165 366.257 302.205 384.239 321 372z"/>
<path style="fill:#f0a064; stroke:none;" d="M310 339L311 340L310 339z"/>
<path style="fill:#757371; stroke:none;" d="M311 339L312 340L311 339M331 339L332 340L331 339z"/>
<path style="fill:#f0a064; stroke:none;" d="M332 339L332 340L340 340L332 339z"/>
<path style="fill:#757371; stroke:none;" d="M345 339L346 340L345 339z"/>
<path style="fill:#f0a064; stroke:none;" d="M346 339L347 340L346 339z"/>
<path style="fill:#f8f8f8; stroke:none;" d="M340 343C339.096 338.783 334.644 340 331 340L331 376L340 376C340 370.111 336.726 346.663 347 347.662C356.457 348.582 353 369.604 353 376L362 376C362 369.604 358.544 348.582 368 347.662C378.274 346.663 375 370.111 375 376L383 376C383 367.271 385.447 354.149 381.991 346.04C378.151 337.032 365.666 337.513 360 344C353.241 338.465 347.27 338.051 340 343z"/>
<path style="fill:#757371; stroke:none;" d="M353 339L354 340L353 339M365 339L366 340L365 339z"/>
<path style="fill:#f0a064; stroke:none;" d="M366 339L367 340L366 339z"/>
<path style="fill:#757371; stroke:none;" d="M374.667 339.333L375.333 339.667L374.667 339.333M171 340L172 341L171 340M189 340L190 341L189 340z"/>
<path style="fill:#f8f8f8; stroke:none;" d="M207 340L207 376L216 376L216 340L207 340z"/>
<path style="fill:#757371; stroke:none;" d="M223 340L223 341L227 341L223 340z"/>
<path style="fill:#f0a064; stroke:none;" d="M236 340L237 341L236 340z"/>
<path style="fill:#757371; stroke:none;" d="M263 340L264 341L263 340z"/>
<path style="fill:#f0a064; stroke:none;" d="M275 340L276 341L275 340M299 340L300 341L299 340z"/>
<path style="fill:#757371; stroke:none;" d="M313 340L314 341L313 340M340 340L340 342L342 342L340 340M343 340L344 341L343 340z"/>
<path style="fill:#f0a064; stroke:none;" d="M355 340L356 341L355 340z"/>
<path style="fill:#757371; stroke:none;" d="M363 340L364 341L363 340M377 340L378 341L377 340z"/>
<path style="fill:#f0a064; stroke:none;" d="M170 341L171 342L170 341z"/>
<path style="fill:#757371; stroke:none;" d="M191 341L192 342L191 341M277 341L278 342L277 341M297 341L298 342L297 341M315 341L316 342L315 341M357 341L358 342L357 341M361 341L362 342L361 341z"/>
<path style="fill:#f0a064; stroke:none;" d="M378 341L379 342L378 341z"/>
<path style="fill:#757371; stroke:none;" d="M168 342L169 343L168 342z"/>
<path style="fill:#f0a064; stroke:none;" d="M192 342L193 343L192 342M260 342L261 343L260 342z"/>
<path style="fill:#757371; stroke:none;" d="M278 342L279 343L278 342z"/>
<path style="fill:#f0a064; stroke:none;" d="M316 342L317 343L316 342M340 342L341 343L340 342z"/>
<path style="fill:#757371; stroke:none;" d="M358 342L359 343L358 342M360 342L361 343L360 342M167.333 343.667L167.667 344.333L167.333 343.667z"/>
<path style="fill:#f0a064; stroke:none;" d="M193 343L194 344L193 343z"/>
<path style="fill:#757371; stroke:none;" d="M279 343L280 344L279 343z"/>
<path style="fill:#f0a064; stroke:none;" d="M359 343L360 344L359 343z"/>
<path style="fill:#757371; stroke:none;" d="M194 344L195 345L194 344z"/>
<path style="fill:#f0a064; stroke:none;" d="M318 344L319 345L318 344z"/>
<path style="fill:#757371; stroke:none;" d="M381 344L382 345L381 344M168 345L169 346L168 345M280 345L281 346L280 345M293 345L294 346L293 345M319 345L320 346L319 345M130 346L130 347L147 347L130 346M169 346L170 347L169 346M195 346L196 347L195 346M292 346L293 347L292 346z"/>
<path style="fill:#f0a064; stroke:none;" d="M305 346L305 347L308 347L305 346z"/>
<path style="fill:#757371; stroke:none;" d="M382 346L383 347L382 346M170 347L171 348L170 347M176 347L177 348L176 347M184 347L185 348L184 347M223 347L223 348L227 348L223 347z"/>
<path style="fill:#f0a064; stroke:none;" d="M236 347L237 348L236 347z"/>
<path style="fill:#757371; stroke:none;" d="M237 347L237 348L243 348L237 347z"/>
<path style="fill:#f0a064; stroke:none;" d="M264 347L265 348L264 347z"/>
<path style="fill:#757371; stroke:none;" d="M265 347L265 348L269 348L265 347M281.333 347.667L281.667 348.333L281.333 347.667z"/>
<path style="fill:#f0a064; stroke:none;" d="M292 347L293 348L292 347M302 347L303 348L302 347z"/>
<path style="fill:#010101; stroke:none;" d="M300 354L313 354C311.253 345.551 301.384 345.137 300 354z"/>
<path style="fill:#757371; stroke:none;" d="M309 347L310 348L309 347z"/>
<path style="fill:#f0a064; stroke:none;" d="M320 347L321 348L320 347M344 347L345 348L344 347z"/>
<path style="fill:#757371; stroke:none;" d="M345 347L345 348L349 348L345 347M366 347L366 348L370 348L366 347z"/>
<path style="fill:#f0a064; stroke:none;" d="M370 347L371 348L370 347z"/>
<path style="fill:#757371; stroke:none;" d="M171 348L172 349L171 348M174 348L175 349L174 348M236 348L236 367L237 367L236 348z"/>
<path style="fill:#f0a064; stroke:none;" d="M262 348L263 349L262 348z"/>
<path style="fill:#757371; stroke:none;" d="M270 348L271 349L270 348M301 348L302 349L301 348z"/>
<path style="fill:#f0a064; stroke:none;" d="M342 348L343 349L342 348z"/>
<path style="fill:#757371; stroke:none;" d="M350 348L351 349L350 348M364 348L365 349L364 348z"/>
<path style="fill:#f0a064; stroke:none;" d="M372 348L373 349L372 348z"/>
<path style="fill:#757371; stroke:none;" d="M383.333 348.667L383.667 349.333L383.333 348.667M172.667 349.333L173.333 349.667L172.667 349.333M186 349L187 350L186 349M196 349L196 376L186 374C188.694 377.736 192.721 377 197 377L196 349M271 349L272 350L271 349z"/>
<path style="fill:#f0a064; stroke:none;" d="M281 349L282 350L281 349z"/>
<path style="fill:#757371; stroke:none;" d="M291 349L292 350L291 349z"/>
<path style="fill:#f0a064; stroke:none;" d="M300 349L301 350L300 349z"/>
<path style="fill:#757371; stroke:none;" d="M321 349L322 350L321 349M351 349L352 350L351 349M363 349L364 350L363 349M261 350L262 351L261 350M312 350L313 351L312 350z"/>
<path style="fill:#f0a064; stroke:none;" d="M321 350L322 351L321 350z"/>
<path style="fill:#757371; stroke:none;" d="M373 350L374 351L373 350z"/>
<path style="fill:#f0a064; stroke:none;" d="M383 350L383 376L384 376L383 350M272 351L273 352L272 351M299 351L300 352L299 351z"/>
<path style="fill:#757371; stroke:none;" d="M352.333 351.667L352.667 352.333L352.333 351.667M362.333 351.667L362.667 352.333L362.333 351.667z"/>
<path style="fill:#f0a064; stroke:none;" d="M260.333 352.667L260.667 353.333L260.333 352.667z"/>
<path style="fill:#757371; stroke:none;" d="M272 352L272 376L273 376L272 352M290.333 352.667L290.667 353.333L290.333 352.667M299 352C301.853 356.4 308.255 355 313 355L313 354L299 352M340 352L340 376L331 376L331 377L341 377L340 352z"/>
<path style="fill:#f0a064; stroke:none;" d="M374 352L375 353L374 352M187 353L188 354L187 353M313.333 353.667L313.667 354.333L313.333 353.667z"/>
<path style="fill:#757371; stroke:none;" d="M322 353L322 361L323 361L322 353M374 353L374 377L384 377L384 376L375 376L374 353M175 354L175 355L187 355L175 354M260 354L260 376L251 376L251 377L261 377L260 354z"/>
<path style="fill:#f0a064; stroke:none;" d="M290.333 354.667L290.667 355.333L290.333 354.667M299 354L300 355L299 354z"/>
<path style="fill:#757371; stroke:none;" d="M130 355L130 356L147 356L130 355M172 355L173 356L172 355z"/>
<path style="fill:#f0a064; stroke:none;" d="M147 356L147 376L148 376L147 356z"/>
<path style="fill:#757371; stroke:none;" d="M170 356L171 357L170 356z"/>
<path style="fill:#f0a064; stroke:none;" d="M167 359L168 360L167 359z"/>
<path style="fill:#757371; stroke:none;" d="M166 360L167 361L166 360z"/>
<path style="fill:#f0a064; stroke:none;" d="M290.333 360.667L290.667 361.333L290.333 360.667M166 361L167 362L166 361M176 361L177 362L176 361z"/>
<path style="fill:#010101; stroke:none;" d="M187 361C185.018 361 182.976 360.88 181 361.059C168.394 362.199 186.101 377.264 187 361z"/>
<path style="fill:#f0a064; stroke:none;" d="M187.333 361.667L187.667 362.333L187.333 361.667z"/>
<path style="fill:#757371; stroke:none;" d="M299.333 361.667L299.667 362.333L299.333 361.667M175 362L176 363L175 362M290.333 362.667L290.667 363.333L290.333 362.667z"/>
<path style="fill:#f0a064; stroke:none;" d="M299 363L300 364L299 363z"/>
<path style="fill:#757371; stroke:none;" d="M165.333 364.667L165.667 365.333L165.333 364.667z"/>
<path style="fill:#f0a064; stroke:none;" d="M174.333 364.667L174.667 365.333L174.333 364.667z"/>
<path style="fill:#757371; stroke:none;" d="M300 365L301 366L300 365M186 366L187 367L186 366z"/>
<path style="fill:#f0a064; stroke:none;" d="M291 366L292 367L291 366M316 366L317 367L316 366z"/>
<path style="fill:#757371; stroke:none;" d="M175 367L176 368L175 367M291 367L292 368L291 367M302 367L303 368L302 367M313 367L314 368L313 367z"/>
<path style="fill:#f0a064; stroke:none;" d="M317 367L318 368L317 367z"/>
<path style="fill:#757371; stroke:none;" d="M176 368L177 369L176 368M184 368L185 369L184 368z"/>
<path style="fill:#f0a064; stroke:none;" d="M227 368L228 369L227 368z"/>
<path style="fill:#757371; stroke:none;" d="M238 368L238 369L243 369L238 368z"/>
<path style="fill:#f0a064; stroke:none;" d="M303 368L304 369L303 368z"/>
<path style="fill:#757371; stroke:none;" d="M304 368L305 369L304 368M311 368L312 369L311 368z"/>
<path style="fill:#f0a064; stroke:none;" d="M318 368L319 369L318 368M166 369L167 370L166 369M178 369L178 370L182 370L178 369z"/>
<path style="fill:#757371; stroke:none;" d="M227 369L228 370L227 369M292 369L293 370L292 369z"/>
<path style="fill:#f0a064; stroke:none;" d="M319 369L320 370L319 369z"/>
<path style="fill:#757371; stroke:none;" d="M166 370L167 371L166 370z"/>
<path style="fill:#f0a064; stroke:none;" d="M293 370L294 371L293 370M320 370L321 371L320 370M167 371L168 372L167 371z"/>
<path style="fill:#757371; stroke:none;" d="M228 371L229 372L228 371M294 372L295 373L294 372M168 373L169 374L168 373z"/>
<path style="fill:#f0a064; stroke:none;" d="M318 373L319 374L318 373z"/>
<path style="fill:#757371; stroke:none;" d="M169 374L170 375L169 374M297 374L298 375L297 374M317 374L318 375L317 374M171 375L172 376L171 375M184 375L185 376L184 375M232 375L233 376L232 375z"/>
<path style="fill:#f0a064; stroke:none;" d="M299 375L300 376L299 375z"/>
<path style="fill:#757371; stroke:none;" d="M315 375L316 376L315 375M120 376L120 377L130 377L120 376M147 376L147 377L157 377L147 376M173.667 376.333L174.333 376.667L173.667 376.333z"/>
<path style="fill:#f0a064; stroke:none;" d="M175 376L176 377L175 376M181 376L182 377L181 376z"/>
<path style="fill:#757371; stroke:none;" d="M182 376L183 377L182 376M235 376L235 377L243 377L235 376M273 376L273 377L282 377L273 376M301.667 376.333L302.333 376.667L301.667 376.333z"/>
<path style="fill:#f0a064; stroke:none;" d="M303 376L304 377L303 376M311 376L312 377L311 376z"/>
<path style="fill:#757371; stroke:none;" d="M312.667 376.333L313.333 376.667L312.667 376.333M353 376L353 377L362 377L353 376M198 392L199 393L198 392z"/>
<path style="fill:#f8f8f8; stroke:none;" d="M197 393C199.706 399.387 195.891 413.647 204 415L204 414C191.22 401.485 218.573 402.012 205 414L205 415C213.933 410.694 211.567 397.039 201 402L201 392L197 393z"/>
<path style="fill:#757371; stroke:none;" d="M232 392L233 393L232 392z"/>
<path style="fill:#f0a064; stroke:none;" d="M233 392L234 393L233 392z"/>
<path style="fill:#f8f8f8; stroke:none;" d="M234 392L231 393L231 394L233 401L230 400L230 401C233.587 404.828 233.158 409.134 232 414L236 414L234 392z"/>
<path style="fill:#757371; stroke:none;" d="M235 392L235 413L236 413L235 392M287 392L288 393L287 392z"/>
<path style="fill:#f0a064; stroke:none;" d="M288 392L289 393L288 392z"/>
<path style="fill:#f8f8f8; stroke:none;" d="M289 392L286 393L286 394C289.803 399.02 288.401 409.115 287 415L291 415L289 392z"/>
<path style="fill:#757371; stroke:none;" d="M290 392L290 414L291 414L290 392M153 393L155 395L153 393z"/>
<path style="fill:#f8f8f8; stroke:none;" d="M154 393L163 415L166 406L165 406L164 410L163 410L159 393L154 393z"/>
<path style="fill:#f0a064; stroke:none;" d="M159 393L160 394L159 393z"/>
<path style="fill:#757371; stroke:none;" d="M160 393L161 394L160 393M163 393L164 394L163 393z"/>
<path style="fill:#f0a064; stroke:none;" d="M164 393L166 395L164 393z"/>
<path style="fill:#f8f8f8; stroke:none;" d="M165 393L167 402L173 415L174 415L176 408L175 408L174 410L170 393L165 393z"/>
<path style="fill:#757371; stroke:none;" d="M170.667 393.333L171.333 393.667L170.667 393.333M177 393L178 394L177 393z"/>
<path style="fill:#f0a064; stroke:none;" d="M178 393L179 394L178 393z"/>
<path style="fill:#f8f8f8; stroke:none;" d="M179 393L179 398L180 398L182 393L179 393z"/>
<path style="fill:#f0a064; stroke:none;" d="M182 393L183 394L182 393z"/>
<path style="fill:#757371; stroke:none;" d="M183 393L184 394L183 393M196 393L197 394L196 393M230 393L231 394L230 393M285 393L286 394L285 393z"/>
<path style="fill:#f0a064; stroke:none;" d="M158.333 394.667L158.667 395.333L158.333 394.667z"/>
<path style="fill:#757371; stroke:none;" d="M169.333 394.667L169.667 395.333L169.333 394.667M181 394L182 395L181 394z"/>
<path style="fill:#f0a064; stroke:none;" d="M232 394L233 395L232 394M287 394L288 395L287 394M155 395L156 396L155 395M179 395L180 396L179 395M198 395L198 413L199 413L198 395z"/>
<path style="fill:#757371; stroke:none;" d="M232 395L232 401L233 401L232 395M287 395L287 414L288 414L287 395M155 396L156 397L155 396M166.333 396.667L166.667 397.333L166.333 396.667z"/>
<path style="fill:#f0a064; stroke:none;" d="M169 396L170 397L169 396z"/>
<path style="fill:#757371; stroke:none;" d="M180 396L181 397L180 396M159 397L160 398L159 397M178 397L179 398L178 397M156.333 398.667L156.667 399.333L156.333 398.667z"/>
<path style="fill:#f0a064; stroke:none;" d="M159 398L160 399L159 398z"/>
<path style="fill:#757371; stroke:none;" d="M170 398L171 399L170 398z"/>
<path style="fill:#f0a064; stroke:none;" d="M178.667 398.333L179.333 398.667L178.667 398.333M167 399L168 400L167 399M170 399L171 400L170 399z"/>
<path style="fill:#f8f8f8; stroke:none;" d="M178.333 399.667L178.667 400.333L178.333 399.667z"/>
<path style="fill:#757371; stroke:none;" d="M179 399L180 400L179 399M188 399L188 400L191 400L188 399M205.667 399.333L206.333 399.667L205.667 399.333M228.667 399.333L229.333 399.667L228.667 399.333M245.667 399.333L246.333 399.667L245.667 399.333M276 399L276 400L279 400L276 399M301.667 399.333L302.333 399.667L301.667 399.333M319.667 399.333L320.333 399.667L319.667 399.333M334.667 399.333L335.333 399.667L334.667 399.333M346 399L347 400L346 399M351 399L352 400L351 399M160 400L161 401L160 400M177 400L178 401L177 400M185 400L183 403L187 402L187 401L185 400z"/>
<path style="fill:#f0a064; stroke:none;" d="M186 400L187 401L186 400z"/>
<path style="fill:#f8f8f8; stroke:none;" d="M187 400L187 401L195 405C192.981 401.4 191.102 400.311 187 400z"/>
<path style="fill:#757371; stroke:none;" d="M192 400L193 401L192 400z"/>
<path style="fill:#f0a064; stroke:none;" d="M203 400L204 401L203 400z"/>
<path style="fill:#757371; stroke:none;" d="M208 400L209 401L208 400z"/>
<path style="fill:#f0a064; stroke:none;" d="M226 400L227 401L226 400z"/>
<path style="fill:#f8f8f8; stroke:none;" d="M227 400C220.777 405.88 221.469 414.473 231 415L231 414C223.673 410.468 226.137 406.375 227 400z"/>
<path style="fill:#f0a064; stroke:none;" d="M228.667 400.333L229.333 400.667L228.667 400.333z"/>
<path style="fill:#757371; stroke:none;" d="M242 400L244 402L242 400z"/>
<path style="fill:#f8f8f8; stroke:none;" d="M243 400L243 401L251 405C249.688 400.847 247.142 400.228 243 400z"/>
<path style="fill:#f0a064; stroke:none;" d="M248 400L249 401L248 400M253 400L254 401L253 400z"/>
<path style="fill:#f8f8f8; stroke:none;" d="M254 400L261 415L263 411L258 400L254 400z"/>
<path style="fill:#f0a064; stroke:none;" d="M258 400L259 401L258 400z"/>
<path style="fill:#757371; stroke:none;" d="M259 400L260 401L259 400M264 400L266 404L267 404L264 400z"/>
<path style="fill:#f0a064; stroke:none;" d="M265 400L266 401L265 400z"/>
<path style="fill:#f8f8f8; stroke:none;" d="M266 400L266 403L267 403L268 400L266 400z"/>
<path style="fill:#f0a064; stroke:none;" d="M268 400L269 401L268 400M274 400L275 401L274 400z"/>
<path style="fill:#f8f8f8; stroke:none;" d="M275 400L275 401L283 405C281.135 401.3 279.089 400.308 275 400z"/>
<path style="fill:#757371; stroke:none;" d="M280 400L281 401L280 400M298 400L298 403L299 403L298 400z"/>
<path style="fill:#f8f8f8; stroke:none;" d="M299.667 400.333L300.333 400.667L299.667 400.333z"/>
<path style="fill:#f0a064; stroke:none;" d="M301 400L302 401L301 400z"/>
<path style="fill:#f8f8f8; stroke:none;" d="M302 400L302 401C306.263 404.762 307.241 409.846 303 414L303 415C310.348 411.327 310.202 402.359 302 400z"/>
<path style="fill:#757371; stroke:none;" d="M305 400L306 401L305 400M312 400L313 401L312 400z"/>
<path style="fill:#f0a064; stroke:none;" d="M313 400L314 401L313 400z"/>
<path style="fill:#f8f8f8; stroke:none;" d="M314 400L312 422L316 422C314.934 418.803 313.668 414.167 317 415C316.305 413.36 315.513 411.765 315.279 409.975C313.832 398.952 328.114 405.332 320 414L320 415C328.566 410.68 325.04 395.864 315 403L314 400z"/>
<path style="fill:#757371; stroke:none;" d="M315 400L315 403L317 402L317 401L315 400M317 400L318 401L317 400z"/>
<path style="fill:#f0a064; stroke:none;" d="M322 400L323 401L322 400z"/>
<path style="fill:#757371; stroke:none;" d="M331 400L329 403L333 402L333 401L331 400z"/>
<path style="fill:#f8f8f8; stroke:none;" d="M332 400L332 401L340 405C338.697 400.708 336.265 400.139 332 400z"/>
<path style="fill:#757371; stroke:none;" d="M338 400L339 401L338 400M344 400L345 401L344 400z"/>
<path style="fill:#f8f8f8; stroke:none;" d="M343 401L344 415L348 415L347 400L343 401z"/>
<path style="fill:#f0a064; stroke:none;" d="M349 400L347 404L348 404L349 400z"/>
<path style="fill:#f8f8f8; stroke:none;" d="M349 401L353 402L349 401z"/>
<path style="fill:#f0a064; stroke:none;" d="M352 400L353 401L352 400z"/>
<path style="fill:#757371; stroke:none;" d="M157 401L158 402L157 401z"/>
<path style="fill:#f0a064; stroke:none;" d="M160 401L161 402L160 401z"/>
<path style="fill:#757371; stroke:none;" d="M166 401L167 402L166 401M171 401L172 402L171 401z"/>
<path style="fill:#f0a064; stroke:none;" d="M177.667 401.333L178.333 401.667L177.667 401.333z"/>
<path style="fill:#f8f8f8; stroke:none;" d="M185 401L186 402L185 401z"/>
<path style="fill:#010101; stroke:none;" d="M185 404L191 404C189.002 401.031 187.385 401.632 185 404z"/>
<path style="fill:#f0a064; stroke:none;" d="M190 401L191 402L190 401z"/>
<path style="fill:#757371; stroke:none;" d="M193 401L194 402L193 401M209 401L210 402L209 401M227 401L226 403L227 401z"/>
<path style="fill:#010101; stroke:none;" d="M232 413L231.995 407.976C231.725 394.111 218.625 411.934 232 413z"/>
<path style="fill:#f0a064; stroke:none;" d="M231 401L232 402L231 401M241 401L242 402L241 401z"/>
<path style="fill:#f8f8f8; stroke:none;" d="M242 401C237.089 409.025 243.252 420.295 251 411C242.179 414.454 242.41 407.465 242 401z"/>
<path style="fill:#010101; stroke:none;" d="M242 404L248 404C245.656 401.748 244.047 401.22 242 404z"/>
<path style="fill:#757371; stroke:none;" d="M246 401L247 402L246 401M250 401L251 402L250 401M254 401L255 402L254 401M258 401L258 404L259 404L258 401M267 401L268 402L267 401z"/>
<path style="fill:#f8f8f8; stroke:none;" d="M273 401C269.608 408.05 273.87 420.293 282 412C273.672 413.356 273.962 407.123 273 401z"/>
<path style="fill:#757371; stroke:none;" d="M274 401L275 402L274 401z"/>
<path style="fill:#010101; stroke:none;" d="M274 404L279 404C277.228 401.318 275.772 401.318 274 404z"/>
<path style="fill:#757371; stroke:none;" d="M278 401L279 402L278 401z"/>
<path style="fill:#f0a064; stroke:none;" d="M281 401L282 402L281 401M297 401L296 403L297 401z"/>
<path style="fill:#f8f8f8; stroke:none;" d="M298 401L299 402L298 401z"/>
<path style="fill:#010101; stroke:none;" d="M300.299 402.176C295.953 404.283 298.721 415.239 303.582 412.824C307.858 410.7 305.203 399.799 300.299 402.176z"/>
<path style="fill:#757371; stroke:none;" d="M303 401L304 402L303 401M306 401L307 402L306 401M310 401L311 402L310 401z"/>
<path style="fill:#f0a064; stroke:none;" d="M311 401L312 402L311 401z"/>
<path style="fill:#f8f8f8; stroke:none;" d="M331 401L332 402L331 401z"/>
<path style="fill:#010101; stroke:none;" d="M331 404L337 404C335.002 401.031 333.385 401.632 331 404z"/>
<path style="fill:#757371; stroke:none;" d="M339 401L340 402L339 401M342 401L343 402L342 401M347 401L348 402L347 401z"/>
<path style="fill:#f0a064; stroke:none;" d="M166.667 402.333L167.333 402.667L166.667 402.333z"/>
<path style="fill:#757371; stroke:none;" d="M168 402L169 403L168 402z"/>
<path style="fill:#f0a064; stroke:none;" d="M171 402L172 403L171 402z"/>
<path style="fill:#f8f8f8; stroke:none;" d="M177.333 402.667L177.667 403.333L177.333 402.667z"/>
<path style="fill:#757371; stroke:none;" d="M178 402L179 403L178 402z"/>
<path style="fill:#f8f8f8; stroke:none;" d="M184 402C181.9 409.108 186.284 419.871 194 412C185.459 413.121 186.467 407.958 184 402z"/>
<path style="fill:#757371; stroke:none;" d="M202 402L201 404L202 402z"/>
<path style="fill:#010101; stroke:none;" d="M203.299 403.176C199.443 405.057 200.62 415.658 205.701 412.863C209.383 410.839 208.131 400.818 203.299 403.176z"/>
<path style="fill:#f0a064; stroke:none;" d="M206 402L207 403L206 402z"/>
<path style="fill:#757371; stroke:none;" d="M210 402L211 403L210 402M240 402L241 403L240 402M247 402L248 403L247 402z"/>
<path style="fill:#f0a064; stroke:none;" d="M255 402L256 403L255 402M273 402L274 403L273 402M279 402L280 403L279 402z"/>
<path style="fill:#757371; stroke:none;" d="M282 402L283 403L282 402z"/>
<path style="fill:#f8f8f8; stroke:none;" d="M297 402C294.318 407.581 294.661 412.72 301 415L297 402z"/>
<path style="fill:#757371; stroke:none;" d="M304 402L305 403L304 402M307 402L308 403L307 402M312 402L312 421L313 421L312 402M317 402L318 403L317 402z"/>
<path style="fill:#010101; stroke:none;" d="M318.263 403.06C314.494 403.794 315.15 414.65 319.78 413.248C324.093 411.943 322.994 402.139 318.263 403.06z"/>
<path style="fill:#757371; stroke:none;" d="M320 402L321 403L320 402z"/>
<path style="fill:#f0a064; stroke:none;" d="M324 402L325 403L324 402z"/>
<path style="fill:#f8f8f8; stroke:none;" d="M330 402C327.832 409.339 333.701 420.69 340 411C331.44 414.161 332.319 407.683 330 402z"/>
<path style="fill:#f0a064; stroke:none;" d="M344 402L345 403L344 402z"/>
<path style="fill:#757371; stroke:none;" d="M348 402L349 403L348 402M350 402L351 403L350 402z"/>
<path style="fill:#f0a064; stroke:none;" d="M352 402L353 403L352 402z"/>
<path style="fill:#757371; stroke:none;" d="M161 403L162 404L161 403z"/>
<path style="fill:#f8f8f8; stroke:none;" d="M166.333 403.667L166.667 404.333L166.333 403.667z"/>
<path style="fill:#757371; stroke:none;" d="M167 403L168 404L167 403M176 403L177 404L176 403M191 403L185 404L185 405L191 403z"/>
<path style="fill:#f0a064; stroke:none;" d="M194 403L195 404L194 403M207 403L208 404L207 403z"/>
<path style="fill:#757371; stroke:none;" d="M223 403L224 404L223 403z"/>
<path style="fill:#f0a064; stroke:none;" d="M225 403L226 404L225 403z"/>
<path style="fill:#757371; stroke:none;" d="M232 403L232 412L233 412L232 403z"/>
<path style="fill:#f0a064; stroke:none;" d="M241 403L242 404L241 403z"/>
<path style="fill:#757371; stroke:none;" d="M251 403L251 406L252 406L251 403M255 403L256 404L255 403z"/>
<path style="fill:#f0a064; stroke:none;" d="M265 403L266 404L265 403z"/>
<path style="fill:#757371; stroke:none;" d="M271 403L272 404L271 403M273 403C275.1 405.403 277.9 405.403 280 403L273 403M295 403L296 404L295 403M321 403L322 404L321 403z"/>
<path style="fill:#f0a064; stroke:none;" d="M337 403L330 404L330 405L341 405L341 404L337 403z"/>
<path style="fill:#757371; stroke:none;" d="M340 403L341 404L340 403M344 403L344 413L345 413L344 403M158 404L159 405L158 404M165 404L166 405L165 404z"/>
<path style="fill:#f0a064; stroke:none;" d="M169 404L170 405L169 404z"/>
<path style="fill:#757371; stroke:none;" d="M172 404L173 405L172 404z"/>
<path style="fill:#f0a064; stroke:none;" d="M176.667 404.333L177.333 404.667L176.667 404.333z"/>
<path style="fill:#757371; stroke:none;" d="M225.333 404.667L225.667 405.333L225.333 404.667M239 404L240 405L239 404M241 404L241 405L248 405L241 404z"/>
<path style="fill:#f8f8f8; stroke:none;" d="M265 404L266 405L265 404z"/>
<path style="fill:#f0a064; stroke:none;" d="M295 404L296 405L295 404z"/>
<path style="fill:#757371; stroke:none;" d="M305.333 404.667L305.667 405.333L305.333 404.667M308 404L309 405L308 404M315 404L315 412L316 412L315 404M325 404L326 405L325 404M328.333 404.667L328.667 405.333L328.333 404.667M331 404L331 405L337 405L331 404M347 404L348 405L347 404z"/>
<path style="fill:#f0a064; stroke:none;" d="M165.667 405.333L166.333 405.667L165.667 405.333z"/>
<path style="fill:#757371; stroke:none;" d="M169 405L170 406L169 405z"/>
<path style="fill:#f8f8f8; stroke:none;" d="M176.333 405.667L176.667 406.333L176.333 405.667z"/>
<path style="fill:#757371; stroke:none;" d="M177 405L178 406L177 405M182.333 405.667L182.667 406.333L182.333 405.667z"/>
<path style="fill:#f0a064; stroke:none;" d="M185 405L185 406L195 406L185 405M208 405L209 406L208 405z"/>
<path style="fill:#757371; stroke:none;" d="M211 405L211 409L212 409L211 405M222 405L223 406L222 405z"/>
<path style="fill:#f0a064; stroke:none;" d="M239 405L240 406L239 405M242 405L242 406L251 406L242 405z"/>
<path style="fill:#757371; stroke:none;" d="M256 405L257 406L256 405M259 405L260 406L259 405M264 405L266 407L264 405z"/>
<path style="fill:#f0a064; stroke:none;" d="M265 405L266 406L265 405M273 405L273 406L283 406L273 405M297 405L297 408L298 408L297 405z"/>
<path style="fill:#757371; stroke:none;" d="M322.333 405.667L322.667 406.333L322.333 405.667z"/>
<path style="fill:#f0a064; stroke:none;" d="M325 405L325 409L326 409L325 405z"/>
<path style="fill:#757371; stroke:none;" d="M340 405L341 406L340 405z"/>
<path style="fill:#f0a064; stroke:none;" d="M159 406L160 407L159 406z"/>
<path style="fill:#757371; stroke:none;" d="M162 406L163 407L162 406M166 406L167 407L166 406M175 406L176 407L175 406z"/>
<path style="fill:#f0a064; stroke:none;" d="M184 406L185 407L184 406z"/>
<path style="fill:#757371; stroke:none;" d="M208 406L208 410L209 410L208 406z"/>
<path style="fill:#f0a064; stroke:none;" d="M222 406L223 407L222 406z"/>
<path style="fill:#757371; stroke:none;" d="M241.333 406.667L241.667 407.333L241.333 406.667z"/>
<path style="fill:#f8f8f8; stroke:none;" d="M264.333 406.667L264.667 407.333L264.333 406.667z"/>
<path style="fill:#757371; stroke:none;" d="M270 406L270 410L271 410L270 406M294 406L294 409L295 409L294 406z"/>
<path style="fill:#f0a064; stroke:none;" d="M328 406L328 410L329 410L328 406z"/>
<path style="fill:#757371; stroke:none;" d="M330 406L331 407L330 406M159 407L160 408L159 407M164 407L165 408L164 407z"/>
<path style="fill:#f0a064; stroke:none;" d="M170 407L171 408L170 407z"/>
<path style="fill:#757371; stroke:none;" d="M173 407L174 408L173 407z"/>
<path style="fill:#f0a064; stroke:none;" d="M175.667 407.333L176.333 407.667L175.667 407.333M182.333 407.667L182.667 408.333L182.333 407.667z"/>
<path style="fill:#757371; stroke:none;" d="M257 407L258 408L257 407M260 407L261 408L260 407M263 407L265 409L263 407z"/>
<path style="fill:#f0a064; stroke:none;" d="M330 407L331 408L330 407z"/>
<path style="fill:#757371; stroke:none;" d="M163 408L164 409L163 408M165.333 408.667L165.667 409.333L165.333 408.667M170 408L171 409L170 408M176 408L177 409L176 408M225.333 408.667L225.667 409.333L225.333 408.667z"/>
<path style="fill:#f0a064; stroke:none;" d="M241 408L242 409L241 408M260 408L261 409L260 408M263 408L264 409L263 408z"/>
<path style="fill:#757371; stroke:none;" d="M273 408L274 409L273 408z"/>
<path style="fill:#f0a064; stroke:none;" d="M160 409L161 410L160 409M163 409L164 410L163 409M174 409L175 410L174 409z"/>
<path style="fill:#757371; stroke:none;" d="M182.333 409.667L182.667 410.333L182.333 409.667M185 409L186 410L185 409M194 409L195 410L194 409z"/>
<path style="fill:#f0a064; stroke:none;" d="M222 409L223 410L222 409z"/>
<path style="fill:#757371; stroke:none;" d="M251 409L250 411L252 411L251 409z"/>
<path style="fill:#f0a064; stroke:none;" d="M258 409L259 410L258 409z"/>
<path style="fill:#f8f8f8; stroke:none;" d="M263 409L264 410L263 409z"/>
<path style="fill:#f0a064; stroke:none;" d="M273 409L274 410L273 409z"/>
<path style="fill:#757371; stroke:none;" d="M282 409L283 410L282 409z"/>
<path style="fill:#f0a064; stroke:none;" d="M308 409L309 410L308 409z"/>
<path style="fill:#757371; stroke:none;" d="M325.333 409.667L325.667 410.333L325.333 409.667M331 409L332 410L331 409M340 409L340 412L341 412L340 409M160 410L161 411L160 410z"/>
<path style="fill:#f0a064; stroke:none;" d="M171 410L172 411L171 410z"/>
<path style="fill:#757371; stroke:none;" d="M175.333 410.667L175.667 411.333L175.333 410.667z"/>
<path style="fill:#f0a064; stroke:none;" d="M194 410L193 412L194 410M208 410L209 411L208 410z"/>
<path style="fill:#757371; stroke:none;" d="M222.333 410.667L222.667 411.333L222.333 410.667z"/>
<path style="fill:#f0a064; stroke:none;" d="M225 410L226 411L225 410M239 410L240 411L239 410z"/>
<path style="fill:#757371; stroke:none;" d="M242 410L243 411L242 410M258 410L259 411L258 410M261 410L261 411L264 411L261 410M274 410L275 411L274 410z"/>
<path style="fill:#f0a064; stroke:none;" d="M282.333 410.667L282.667 411.333L282.333 410.667z"/>
<path style="fill:#757371; stroke:none;" d="M298 410L299 411L298 410M308 410L309 411L308 410M322.333 410.667L322.667 411.333L322.333 410.667M328 410L329 411L328 410z"/>
<path style="fill:#f0a064; stroke:none;" d="M331 410L332 411L331 410M340 410L341 411L340 410z"/>
<path style="fill:#757371; stroke:none;" d="M164 411L165 412L164 411M171 411L172 412L171 411z"/>
<path style="fill:#f0a064; stroke:none;" d="M186 411L187 412L186 411z"/>
<path style="fill:#757371; stroke:none;" d="M194 411L195 412L194 411M210 411L211 412L210 411M226 411L227 412L226 411M239 411L240 412L239 411M243 411L244 412L243 411z"/>
<path style="fill:#f0a064; stroke:none;" d="M271 411L272 412L271 411z"/>
<path style="fill:#757371; stroke:none;" d="M281 411L282 412L281 411M295 411L296 412L295 411z"/>
<path style="fill:#f0a064; stroke:none;" d="M298 411L299 412L298 411z"/>
<path style="fill:#757371; stroke:none;" d="M305 411L306 412L305 411z"/>
<path style="fill:#f0a064; stroke:none;" d="M332 411L333 412L332 411z"/>
<path style="fill:#757371; stroke:none;" d="M161.333 412.667L161.667 413.333L161.333 412.667M183 412L184 413L183 412M188 412L189 413L188 412M191 412L192 413L191 412M207 412L208 413L207 412z"/>
<path style="fill:#f0a064; stroke:none;" d="M209 412L210 413L209 412M223 412L224 413L223 412M232 412L233 413L232 412M240 412L241 413L240 412M244 412L245 413L244 412z"/>
<path style="fill:#757371; stroke:none;" d="M245 412L246 413L245 412M247.667 412.333L248.333 412.667L247.667 412.333M250 412L251 413L250 412M259 412L260 413L259 412z"/>
<path style="fill:#f0a064; stroke:none;" d="M262 412L263 413L262 412z"/>
<path style="fill:#757371; stroke:none;" d="M276.667 412.333L277.333 412.667L276.667 412.333M279 412L280 413L279 412z"/>
<path style="fill:#f0a064; stroke:none;" d="M280 412L281 413L280 412z"/>
<path style="fill:#757371; stroke:none;" d="M299 412L300 413L299 412z"/>
<path style="fill:#f0a064; stroke:none;" d="M305 412L306 413L305 412z"/>
<path style="fill:#757371; stroke:none;" d="M307 412L308 413L307 412z"/>
<path style="fill:#f0a064; stroke:none;" d="M315 412L316 413L315 412z"/>
<path style="fill:#757371; stroke:none;" d="M324 412L325 413L324 412M329 412L330 413L329 412M334 412L335 413L334 412M337 412L338 413L337 412z"/>
<path style="fill:#f0a064; stroke:none;" d="M339 412L340 413L339 412z"/>
<path style="fill:#757371; stroke:none;" d="M347.333 412.667L347.667 413.333L347.333 412.667M172 413L173 414L172 413M174 413L175 414L174 413z"/>
<path style="fill:#f0a064; stroke:none;" d="M184 413L185 414L184 413z"/>
<path style="fill:#757371; stroke:none;" d="M198 413L199 414L198 413M202 413L203 414L202 413M206 413L207 414L206 413z"/>
<path style="fill:#f0a064; stroke:none;" d="M208 413L209 414L208 413z"/>
<path style="fill:#757371; stroke:none;" d="M228 413L228 414L233 415L233 414L228 413z"/>
<path style="fill:#f0a064; stroke:none;" d="M231 413L232 414L231 413M236 413L235 415L236 413z"/>
<path style="fill:#757371; stroke:none;" d="M237 413L238 414L237 413z"/>
<path style="fill:#f0a064; stroke:none;" d="M249 413L250 414L249 413z"/>
<path style="fill:#757371; stroke:none;" d="M262 413L263 414L262 413M272 413L273 414L272 413M281 413L282 414L281 413M300 413L301 414L300 413M304 413L305 414L304 413M306 413L307 414L306 413M316 413L317 414L316 413z"/>
<path style="fill:#f0a064; stroke:none;" d="M321 413L322 414L321 413z"/>
<path style="fill:#757371; stroke:none;" d="M323 413L324 414L323 413z"/>
<path style="fill:#f0a064; stroke:none;" d="M330 413L331 414L330 413M344 413L345 414L344 413z"/>
<path style="fill:#757371; stroke:none;" d="M163 414L164 415L163 414M185 414L186 415L185 414M199 414L200 415L199 414z"/>
<path style="fill:#f0a064; stroke:none;" d="M204 414L205 415L204 414z"/>
<path style="fill:#757371; stroke:none;" d="M207 414L208 415L207 414z"/>
<path style="fill:#f0a064; stroke:none;" d="M225 414L226 415L225 414z"/>
<path style="fill:#757371; stroke:none;" d="M236 414L237 415L236 414z"/>
<path style="fill:#f0a064; stroke:none;" d="M242 414L243 415L242 414M248 414L249 415L248 414z"/>
<path style="fill:#757371; stroke:none;" d="M260 414L261 415L260 414M273 414L274 415L273 414M280 414L281 415L280 414M285.667 414.333L286.333 414.667L285.667 414.333M291.667 414.333L292.333 414.667L291.667 414.333z"/>
<path style="fill:#f0a064; stroke:none;" d="M298 414L299 415L298 414M301.667 414.333L302.333 414.667L301.667 414.333z"/>
<path style="fill:#757371; stroke:none;" d="M305 414L306 415L305 414z"/>
<path style="fill:#f0a064; stroke:none;" d="M315 414L316 415L315 414M317 414L318 415L317 414z"/>
<path style="fill:#757371; stroke:none;" d="M317 415L317 416L321 416L317 415M322 414L323 415L322 414M331 414L332 415L331 414z"/>
<path style="fill:#f0a064; stroke:none;" d="M337 414L338 415L337 414z"/>
<path style="fill:#757371; stroke:none;" d="M342 414L343 415L342 414z"/>
<path style="fill:#f0a064; stroke:none;" d="M343 414L344 415L343 414M348 414L349 415L348 414z"/>
<path style="fill:#757371; stroke:none;" d="M349 414L350 415L349 414M162 415L163 416L162 415M173 415L174 416L173 415M187 415L187 416L191 416L187 415M202 415L202 416L206 416L202 415M226 415L226 416L230 416L226 415M233 415L234 416L233 415M244 415L244 416L247 416L244 415M261 415L262 416L261 415M275 415L275 416L279 416L275 415M300 415L300 416L304 416L300 415M315 415L315 421L316 421L315 415M333 415L333 416L337 416L333 415M310 421C312.232 423.554 315.768 423.554 318 421L310 421z"/>
</svg>
