<?xml version="1.0" standalone="no"?>
<!DOCTYPE svg PUBLIC "-//W3C//DTD SVG 20010904//EN"
 "http://www.w3.org/TR/2001/REC-SVG-20010904/DTD/svg10.dtd">
<svg version="1.0" xmlns="http://www.w3.org/2000/svg"
 width="500.000000pt" height="500.000000pt" viewBox="0 0 500.000000 500.000000"
 preserveAspectRatio="xMidYMid meet">

<g transform="translate(0.000000,500.000000) scale(0.100000,-0.100000)"
fill="#ef4136" stroke="none">
<path d="M0 2500 l0 -2500 2500 0 2500 0 0 2500 0 2500 -2500 0 -2500 0 0
-2500z m2545 1706 c66 -28 75 -98 20 -153 l-35 -35 0 -151 0 -151 84 82 84 82
123 0 c110 0 125 2 145 21 18 16 21 28 16 64 -4 39 -1 48 26 75 40 40 101 42
137 5 37 -36 35 -97 -5 -137 -27 -27 -36 -30 -75 -26 -38 5 -47 2 -71 -23 -20
-21 -37 -29 -61 -29 -18 0 -33 -4 -33 -8 0 -4 18 -26 40 -47 22 -21 40 -47 40
-57 0 -35 -36 -18 -100 47 -62 63 -66 65 -115 65 -49 0 -50 -1 -142 -92 l-93
-93 0 -124 0 -124 64 61 64 62 264 0 264 0 68 69 c59 60 68 73 62 95 -8 32 16
91 42 105 36 19 91 13 117 -13 71 -71 15 -178 -85 -162 -33 5 -40 2 -85 -44
l-49 -50 149 0 c154 0 183 -6 172 -34 -6 -14 -40 -16 -303 -16 l-297 0 42 -45
c45 -48 49 -62 25 -72 -11 -4 -36 14 -78 56 l-62 61 -115 0 -115 0 -72 -73
-72 -72 0 -503 0 -502 -25 0 -25 0 0 417 0 418 -121 121 -121 121 -44 -5 c-38
-4 -47 -1 -74 26 -48 48 -33 126 29 152 69 28 137 -22 128 -97 -4 -41 -4 -42
99 -144 l104 -104 0 115 0 115 -112 112 -113 113 -184 0 -185 0 -43 42 c-39
39 -46 42 -91 39 -40 -2 -51 2 -72 24 -58 61 -14 160 71 160 58 0 91 -40 88
-101 -3 -38 1 -49 31 -79 33 -34 36 -35 113 -35 l79 0 -26 31 c-30 35 -32 47
-10 56 10 4 32 -10 63 -41 47 -46 47 -46 116 -46 l70 0 102 -102 103 -103 0
124 0 123 -150 154 c-102 106 -147 159 -143 170 3 8 12 14 20 12 8 -2 72 -61
144 -133 l129 -130 0 91 c0 86 -1 91 -24 104 -69 36 -49 154 29 173 11 3 21 5
23 6 1 0 18 -5 37 -13z m-1046 -641 c33 -17 53 -63 45 -105 -6 -25 1 -36 48
-84 l55 -56 123 0 124 0 -28 29 c-29 30 -30 61 -3 61 7 0 33 -20 57 -45 l44
-45 86 0 85 0 104 -104 104 -105 5 -410 5 -411 -27 0 -26 0 0 310 0 310 -118
0 -118 0 -72 -73 c-67 -67 -72 -75 -72 -116 0 -57 -41 -101 -95 -101 -71 0
-119 86 -85 151 16 29 68 52 105 46 29 -5 38 1 81 44 l48 49 -211 0 -211 0
-35 -35 c-45 -45 -104 -49 -142 -10 -37 37 -35 106 4 146 43 42 92 40 138 -6
l35 -35 156 0 156 0 -58 59 c-56 57 -69 89 -38 99 7 2 50 -33 95 -77 l83 -81
172 0 172 0 0 62 0 63 -82 82 -83 83 -243 0 -244 0 -69 67 c-66 63 -72 67
-112 64 -81 -5 -131 71 -91 138 29 50 81 64 133 36z m1862 -284 c21 -22 29
-39 29 -66 0 -51 -44 -95 -96 -95 -30 0 -44 7 -74 40 l-37 40 -179 0 -180 0
-57 -58 -57 -58 0 -62 0 -62 378 0 379 0 11 26 c7 14 28 32 47 40 31 12 39 12
70 -1 50 -20 71 -71 51 -119 -17 -41 -42 -56 -91 -56 -35 0 -85 35 -85 60 0 7
-74 10 -220 10 -121 0 -220 -4 -220 -8 0 -4 22 -29 49 -56 44 -43 52 -47 81
-41 68 15 128 -42 116 -111 -14 -74 -103 -98 -158 -44 -27 27 -30 36 -26 75 5
42 4 44 -66 114 l-71 71 -123 0 -122 0 0 -295 c0 -288 0 -295 -20 -295 -20 0
-20 7 -20 392 l0 392 62 63 62 63 199 0 198 0 30 35 c42 47 96 49 140 6z
m-1203 -1573 l3 -38 -50 0 -51 0 0 33 c0 44 6 49 55 45 38 -3 40 -4 43 -40z
m-858 -68 l0 -100 85 0 85 0 0 100 0 100 50 0 50 0 0 -256 0 -255 -47 3 -48 3
-3 108 -3 107 -84 0 -85 0 0 -110 0 -110 -50 0 -50 0 0 255 0 255 50 0 50 0 0
-100z m1310 20 l0 -81 30 16 c62 32 136 9 165 -51 11 -24 15 -68 15 -173 l0
-141 -45 0 -45 0 0 125 c0 120 -1 127 -25 150 -29 30 -45 31 -74 8 -19 -16
-21 -30 -23 -148 l-3 -130 -45 0 -45 0 -3 253 -2 252 50 0 50 0 0 -80z m-250
-4 c0 -54 0 -55 33 -58 28 -3 32 -7 35 -35 3 -29 1 -32 -30 -35 l-33 -3 -3
-87 c-3 -99 7 -128 43 -128 22 0 25 -4 25 -40 0 -38 -1 -40 -32 -40 -44 0
-100 29 -115 60 -8 15 -13 66 -13 128 0 95 -2 104 -20 109 -14 4 -20 14 -20
35 0 21 6 31 20 35 17 5 20 14 20 59 l0 54 45 0 45 0 0 -54z m-491 -52 c17 -4
45 -19 61 -34 l30 -28 0 -156 0 -156 -40 0 c-26 0 -43 5 -46 14 -4 12 -10 11
-36 -1 -47 -24 -116 -12 -150 26 -37 42 -39 107 -4 148 22 25 31 28 105 31
l81 4 0 29 c0 18 -7 32 -19 39 -27 14 -77 13 -101 -2 -17 -11 -24 -9 -46 14
-16 15 -23 31 -19 38 20 32 110 49 184 34z m289 -181 l-3 -188 -45 0 -45 0 -3
175 c-1 96 0 180 2 187 3 8 23 13 51 13 l45 0 -2 -187z m1000 160 c37 -26 61
-79 64 -139 l3 -49 -118 -3 c-117 -3 -118 -3 -112 -25 16 -53 94 -76 144 -41
22 16 24 15 50 -10 l26 -27 -30 -24 c-50 -41 -157 -46 -212 -10 -104 69 -94
281 17 338 45 23 130 18 168 -10z m242 12 c0 -18 1 -18 36 0 41 21 96 19 128
-6 15 -11 32 -18 39 -15 7 4 23 13 37 21 38 22 102 19 141 -8 49 -33 60 -76
57 -226 l-3 -126 -45 0 -45 0 -3 132 c-2 128 -3 133 -27 149 -26 17 -55 12
-80 -12 -12 -12 -15 -43 -15 -145 l0 -129 -45 0 -45 0 0 125 c0 120 -1 127
-25 150 -29 30 -45 31 -76 6 -23 -18 -24 -27 -27 -151 l-4 -131 -41 3 -42 3
-3 188 -2 187 45 0 c33 0 45 -4 45 -15z m-1390 -567 c0 -40 3 -49 12 -40 17
17 54 15 72 -4 16 -16 21 -69 10 -99 -11 -27 -62 -45 -96 -33 l-28 10 0 99 c0
72 -3 99 -12 100 -12 0 19 17 35 18 4 1 7 -22 7 -51z m340 -48 c0 -84 3 -101
18 -109 20 -12 23 -12 -55 -17 -58 -4 -63 -3 -79 21 -33 51 3 125 63 125 28 0
33 3 33 24 0 14 -5 28 -11 32 -8 4 -7 9 2 15 26 17 29 8 29 -91z m550 -3 c0
-67 4 -107 12 -115 9 -9 4 -12 -22 -12 -26 0 -31 3 -22 12 16 16 16 184 1 194
-8 4 -7 9 2 15 26 17 29 8 29 -94z m-1307 75 c-2 -10 7 -47 20 -82 l25 -65 12
30 c21 55 23 84 6 110 l-16 25 37 0 c27 0 34 -3 26 -11 -8 -8 -6 -26 7 -65 33
-95 35 -95 61 -15 20 62 21 73 9 81 -11 7 -5 10 20 10 21 0 30 -3 22 -8 -7 -5
-27 -52 -45 -106 -18 -54 -37 -97 -42 -97 -5 0 -19 28 -30 62 -23 69 -24 68
-49 -8 -10 -29 -21 -55 -26 -58 -4 -2 -24 42 -45 100 -20 57 -42 106 -48 109
-7 2 4 5 25 5 30 1 35 -2 31 -17z m339 -69 c33 -29 22 -43 -32 -43 -55 0 -65
-16 -33 -52 20 -23 41 -23 67 0 20 17 20 17 5 -8 -12 -18 -27 -26 -52 -28 -32
-3 -38 1 -52 29 -39 75 38 156 97 102z m572 -5 c21 -30 12 -38 -45 -38 -54 0
-54 1 -37 -34 13 -31 40 -41 68 -26 23 12 27 -2 5 -20 -43 -36 -105 3 -105 66
0 65 80 102 114 52z m88 13 c-11 -6 -10 -16 4 -49 9 -23 20 -42 24 -42 4 0 14
19 23 42 13 33 14 44 4 50 -8 5 -3 8 13 8 l26 0 -36 -75 c-19 -41 -37 -75 -40
-75 -3 0 -16 28 -30 61 -13 34 -30 68 -38 75 -11 12 -8 14 25 14 24 0 33 -3
25 -9z m228 -10 c18 -34 12 -41 -40 -41 -56 0 -65 -15 -30 -50 24 -24 43 -25
60 -5 7 9 15 13 18 10 3 -3 -3 -14 -13 -25 -22 -24 -62 -26 -87 -3 -23 21 -24
89 -1 115 22 25 79 24 93 -1z m250 -3 c49 -53 0 -143 -70 -129 -50 10 -69 92
-30 131 27 27 74 26 100 -2z m83 10 c4 -10 7 -10 18 0 17 16 54 15 68 -2 7 -8
14 -29 17 -48 8 -47 -25 -88 -72 -88 -29 0 -34 -3 -34 -23 0 -13 5 -28 12 -35
9 -9 4 -12 -23 -11 -18 0 -28 3 -21 6 16 6 17 179 1 189 -8 4 -7 9 2 15 19 12
27 11 32 -3z m239 -5 c33 -29 22 -43 -32 -43 -55 0 -65 -16 -33 -52 20 -23 41
-23 67 0 20 17 20 17 5 -7 -31 -50 -93 -43 -112 12 -25 76 50 140 105 90z m79
5 c1 -7 1 -35 -1 -61 -1 -26 4 -54 10 -62 10 -13 8 -15 -16 -15 l-29 0 3 65
c3 49 0 65 -10 65 -10 0 -9 3 2 10 21 13 40 12 41 -2z m59 -4 c0 -11 -5 -14
-16 -10 -9 3 -20 6 -25 6 -6 0 -7 5 -4 10 10 16 45 12 45 -6z"/>
<path d="M1762 1381 c-8 -5 -12 -21 -10 -37 3 -26 7 -29 46 -32 52 -4 72 10
72 49 0 28 -2 29 -47 29 -27 0 -54 -4 -61 -9z"/>
<path d="M3017 1513 c-8 -10 -17 -27 -19 -38 -3 -18 3 -20 65 -23 65 -3 67 -2
67 21 0 50 -78 78 -113 40z"/>
<path d="M2022 972 c-9 -6 -12 -26 -10 -58 3 -44 5 -49 29 -52 21 -2 29 3 39
29 12 27 11 36 -1 58 -16 28 -36 36 -57 23z"/>
<path d="M2260 971 c-20 -39 -7 -92 26 -105 25 -10 44 12 44 51 0 44 -16 73
-40 73 -11 0 -24 -9 -30 -19z"/>
<path d="M1857 984 c-17 -17 -5 -34 24 -34 24 0 30 4 27 18 -3 17 -38 29 -51
16z"/>
<path d="M2427 984 c-17 -17 -5 -34 24 -34 24 0 30 4 27 18 -3 17 -38 29 -51
16z"/>
<path d="M2742 978 c-20 -20 -14 -28 23 -28 19 0 35 4 35 8 0 12 -22 32 -35
32 -6 0 -16 -5 -23 -12z"/>
<path d="M2987 983 c-11 -10 -8 -82 3 -104 13 -23 55 -25 64 -3 11 28 6 69
-10 92 -15 21 -44 29 -57 15z"/>
<path d="M3162 968 c-14 -14 -16 -76 -3 -96 14 -23 55 -10 65 21 18 50 -30
107 -62 75z"/>
<path d="M3317 984 c-17 -17 -5 -34 24 -34 24 0 30 4 27 18 -3 17 -38 29 -51
16z"/>
</g>
</svg>
